<svg width="929" height="188" viewBox="0 0 929 188" fill="none" xmlns="http://www.w3.org/2000/svg">
<mask id="mask0_1663_10357" style="mask-type:alpha" maskUnits="userSpaceOnUse" x="31" y="33" width="125" height="125">
<circle cx="93.5" cy="95.5" r="62.5" fill="#C4C4C4"/>
</mask>
<g mask="url(#mask0_1663_10357)">
<path fill-rule="evenodd" clip-rule="evenodd" d="M126.766 2.7173L4.98106 73.0298L10.5676 82.706L132.352 12.3936L126.766 2.7173ZM136.791 19.6924L15.0064 90.0049L20.593 99.6811L142.378 29.3686L136.791 19.6924ZM24.9518 106.841L146.737 36.5288L152.323 46.2051L30.5384 116.518L24.9518 106.841ZM157.018 53.1709L35.233 123.483L40.8196 133.16L162.604 62.8472L157.018 53.1709ZM45.1783 140.319L166.963 70.0063L172.55 79.6826L50.7649 149.995L45.1783 140.319ZM55.1256 157.155L176.91 86.8423L182.497 96.5185L60.7122 166.831L55.1256 157.155ZM62.3951 175.536L184.18 105.223L189.767 114.899L67.9817 185.212L62.3951 175.536Z" fill="url(#paint0_linear_1663_10357)"/>
</g>
<path d="M211.9 136.6C206.233 136.6 201.167 135.433 196.7 133.1C192.3 130.7 188.833 127.433 186.3 123.3C183.767 119.1 182.5 114.367 182.5 109.1V65.9H197.5V108.2C197.5 111 198.133 113.533 199.4 115.8C200.733 118 202.5 119.767 204.7 121.1C206.9 122.433 209.3 123.1 211.9 123.1C214.633 123.1 217.1 122.433 219.3 121.1C221.567 119.767 223.333 118 224.6 115.8C225.933 113.533 226.6 111 226.6 108.2V65.9H241.1V109.1C241.1 114.367 239.833 119.1 237.3 123.3C234.833 127.433 231.4 130.7 227 133.1C222.6 135.433 217.567 136.6 211.9 136.6Z" fill="#fff"/>
<path d="M253.686 136V83.1H267.386L267.786 93.9L264.986 95.1C265.653 92.7 266.953 90.5333 268.886 88.6C270.819 86.6 273.119 85 275.786 83.8C278.453 82.6 281.219 82 284.086 82C288.086 82 291.419 82.8 294.086 84.4C296.819 86 298.853 88.4333 300.186 91.7C301.586 94.9 302.286 98.9 302.286 103.7V136H288.086V104.7C288.086 102.3 287.753 100.3 287.086 98.7C286.419 97.1 285.419 95.9333 284.086 95.2C282.753 94.4667 281.053 94.1333 278.986 94.2C277.386 94.2 275.919 94.4667 274.586 95C273.253 95.4667 272.053 96.1667 270.986 97.1C269.986 98.0333 269.219 99.1 268.686 100.3C268.153 101.5 267.886 102.833 267.886 104.3V136H260.786C259.319 136 257.986 136 256.786 136C255.586 136 254.553 136 253.686 136Z" fill="#fff"/>
<path d="M312.893 136V83.1H326.593L327.093 100.1L324.693 96.5C325.56 93.8333 326.86 91.4 328.593 89.2C330.393 87 332.493 85.2667 334.893 84C337.36 82.6667 339.926 82 342.593 82C343.793 82 344.893 82.1 345.893 82.3C346.96 82.4333 347.86 82.6667 348.593 83L344.793 98.5C344.06 98.1667 343.093 97.8667 341.893 97.6C340.76 97.2667 339.593 97.1 338.393 97.1C336.86 97.1 335.393 97.4 333.993 98C332.66 98.5333 331.46 99.3333 330.393 100.4C329.393 101.4 328.593 102.6 327.993 104C327.46 105.4 327.193 106.967 327.193 108.7V136H312.893Z" fill="#fff"/>
<path d="M380.795 136V102.9C380.795 100.1 379.928 97.9667 378.195 96.5C376.528 94.9667 374.261 94.2 371.395 94.2C368.661 94.2 366.228 94.7333 364.095 95.8C361.961 96.8667 359.961 98.5333 358.095 100.8L349.395 92.4C352.595 89.0667 356.161 86.5 360.095 84.7C364.095 82.9 368.428 82 373.095 82C377.361 82 381.061 82.6667 384.195 84C387.395 85.3333 389.861 87.3333 391.595 90C393.328 92.6667 394.195 96.0333 394.195 100.1V136H380.795ZM366.295 137C362.961 137 359.928 136.333 357.195 135C354.528 133.667 352.395 131.833 350.795 129.5C349.261 127.1 348.495 124.3 348.495 121.1C348.495 118.367 348.995 115.967 349.995 113.9C350.995 111.767 352.461 110.033 354.395 108.7C356.395 107.3 358.861 106.233 361.795 105.5C364.795 104.767 368.261 104.4 372.195 104.4H387.795L386.895 113.9H371.995C370.395 113.9 368.961 114.033 367.695 114.3C366.495 114.567 365.461 115 364.595 115.6C363.795 116.2 363.161 116.9 362.695 117.7C362.295 118.5 362.095 119.433 362.095 120.5C362.095 121.633 362.395 122.633 362.995 123.5C363.595 124.367 364.395 125.033 365.395 125.5C366.461 125.967 367.661 126.2 368.995 126.2C370.928 126.2 372.761 125.867 374.495 125.2C376.295 124.533 377.895 123.6 379.295 122.4C380.695 121.2 381.795 119.833 382.595 118.3L385.295 125.4C383.895 127.667 382.195 129.667 380.195 131.4C378.195 133.133 376.028 134.5 373.695 135.5C371.361 136.5 368.895 137 366.295 137Z" fill="#fff"/>
<path d="M419.491 136L397.291 83.1H412.791L426.891 122.4L423.691 123L438.491 83.1H453.691L430.391 136H419.491Z" fill="#fff"/>
<path d="M482.997 137C477.264 137 472.23 135.833 467.897 133.5C463.63 131.167 460.297 127.967 457.897 123.9C455.564 119.833 454.397 115.2 454.397 110C454.397 105.867 455.064 102.1 456.397 98.7C457.73 95.2333 459.597 92.2667 461.997 89.8C464.397 87.3333 467.23 85.4333 470.497 84.1C473.83 82.7 477.464 82 481.397 82C484.997 82 488.297 82.6667 491.297 84C494.364 85.2667 496.997 87.1 499.197 89.5C501.464 91.8333 503.197 94.6 504.397 97.8C505.597 101 506.164 104.5 506.097 108.3L505.997 112.7H463.497L461.197 103.9H494.297L492.597 105.7V103.6C492.464 101.733 491.864 100.1 490.797 98.7C489.797 97.3 488.497 96.2 486.897 95.4C485.297 94.5333 483.53 94.1 481.597 94.1C478.597 94.1 476.064 94.7 473.997 95.9C471.997 97.0333 470.464 98.7 469.397 100.9C468.397 103.033 467.897 105.7 467.897 108.9C467.897 112.033 468.564 114.8 469.897 117.2C471.23 119.533 473.13 121.333 475.597 122.6C478.13 123.867 481.097 124.5 484.497 124.5C486.83 124.5 488.964 124.133 490.897 123.4C492.83 122.667 494.93 121.4 497.197 119.6L503.897 129.1C502.03 130.767 499.93 132.2 497.597 133.4C495.264 134.6 492.864 135.5 490.397 136.1C487.93 136.7 485.464 137 482.997 137Z" fill="#fff"/>
<path d="M513.688 136V62H527.888V136H513.688Z" fill="#fff"/>
<path d="M591.7 137C586.567 137 581.833 136.133 577.5 134.4C573.233 132.6 569.5 130.1 566.3 126.9C563.167 123.633 560.733 119.8 559 115.4C557.333 111 556.5 106.167 556.5 100.9C556.5 95.7667 557.4 91.0333 559.2 86.7C561 82.3 563.533 78.4667 566.8 75.2C570.067 71.9333 573.867 69.4 578.2 67.6C582.6 65.8 587.367 64.9 592.5 64.9C595.833 64.9 599.1 65.3667 602.3 66.3C605.567 67.1667 608.533 68.5 611.2 70.3C613.933 72.0333 616.267 74.0667 618.2 76.4L608.8 86.9C606.467 84.3667 603.933 82.4333 601.2 81.1C598.467 79.7667 595.533 79.1 592.4 79.1C589.533 79.1 586.833 79.6333 584.3 80.7C581.833 81.7 579.667 83.1667 577.8 85.1C575.933 87.0333 574.467 89.3333 573.4 92C572.333 94.6667 571.8 97.6333 571.8 100.9C571.8 104.233 572.3 107.267 573.3 110C574.367 112.667 575.867 114.967 577.8 116.9C579.733 118.767 582.033 120.233 584.7 121.3C587.433 122.3 590.433 122.8 593.7 122.8C595.833 122.8 597.867 122.5 599.8 121.9C601.8 121.3 603.667 120.467 605.4 119.4C607.133 118.333 608.667 117.1 610 115.7L617.3 127.4C615.767 129.2 613.633 130.833 610.9 132.3C608.167 133.767 605.133 134.933 601.8 135.8C598.467 136.6 595.1 137 591.7 137Z" fill="#fff"/>
<path d="M654.248 136V102.9C654.248 100.1 653.381 97.9667 651.648 96.5C649.981 94.9667 647.714 94.2 644.848 94.2C642.114 94.2 639.681 94.7333 637.548 95.8C635.414 96.8667 633.414 98.5333 631.548 100.8L622.848 92.4C626.048 89.0667 629.614 86.5 633.548 84.7C637.548 82.9 641.881 82 646.548 82C650.814 82 654.514 82.6667 657.648 84C660.848 85.3333 663.314 87.3333 665.048 90C666.781 92.6667 667.648 96.0333 667.648 100.1V136H654.248ZM639.748 137C636.414 137 633.381 136.333 630.648 135C627.981 133.667 625.848 131.833 624.248 129.5C622.714 127.1 621.948 124.3 621.948 121.1C621.948 118.367 622.448 115.967 623.448 113.9C624.448 111.767 625.914 110.033 627.848 108.7C629.848 107.3 632.314 106.233 635.248 105.5C638.248 104.767 641.714 104.4 645.648 104.4H661.248L660.348 113.9H645.448C643.848 113.9 642.414 114.033 641.148 114.3C639.948 114.567 638.914 115 638.048 115.6C637.248 116.2 636.614 116.9 636.148 117.7C635.748 118.5 635.548 119.433 635.548 120.5C635.548 121.633 635.848 122.633 636.448 123.5C637.048 124.367 637.848 125.033 638.848 125.5C639.914 125.967 641.114 126.2 642.448 126.2C644.381 126.2 646.214 125.867 647.948 125.2C649.748 124.533 651.348 123.6 652.748 122.4C654.148 121.2 655.248 119.833 656.048 118.3L658.748 125.4C657.348 127.667 655.648 129.667 653.648 131.4C651.648 133.133 649.481 134.5 647.148 135.5C644.814 136.5 642.348 137 639.748 137Z" fill="#fff"/>
<path d="M677.416 136V83.1H691.116L691.616 100.1L689.216 96.5C690.083 93.8333 691.383 91.4 693.116 89.2C694.916 87 697.016 85.2667 699.416 84C701.883 82.6667 704.45 82 707.116 82C708.316 82 709.416 82.1 710.416 82.3C711.483 82.4333 712.383 82.6667 713.116 83L709.316 98.5C708.583 98.1667 707.616 97.8667 706.416 97.6C705.283 97.2667 704.116 97.1 702.916 97.1C701.383 97.1 699.916 97.4 698.516 98C697.183 98.5333 695.983 99.3333 694.916 100.4C693.916 101.4 693.116 102.6 692.516 104C691.983 105.4 691.716 106.967 691.716 108.7V136H677.416Z" fill="#fff"/>
<path d="M748.764 137C746.431 137 744.164 136.667 741.964 136C739.764 135.267 737.764 134.333 735.964 133.2C734.164 132.067 732.664 130.767 731.464 129.3C730.264 127.833 729.497 126.3 729.164 124.7L732.364 123.4L731.764 135.8H718.264V62H732.564V95.4L729.764 94.3C730.164 92.7 730.931 91.1667 732.064 89.7C733.197 88.2333 734.631 86.9333 736.364 85.8C738.097 84.6 739.997 83.6667 742.064 83C744.131 82.3333 746.231 82 748.364 82C753.031 82 757.164 83.2 760.764 85.6C764.364 87.9333 767.197 91.2 769.264 95.4C771.397 99.5333 772.464 104.233 772.464 109.5C772.464 114.833 771.431 119.567 769.364 123.7C767.297 127.833 764.464 131.1 760.864 133.5C757.331 135.833 753.297 137 748.764 137ZM745.364 124.9C748.031 124.9 750.331 124.267 752.264 123C754.264 121.667 755.831 119.867 756.964 117.6C758.097 115.267 758.664 112.567 758.664 109.5C758.664 106.5 758.097 103.867 756.964 101.6C755.897 99.2667 754.364 97.4667 752.364 96.2C750.364 94.8667 748.031 94.2 745.364 94.2C742.764 94.2 740.464 94.8667 738.464 96.2C736.464 97.4667 734.897 99.2667 733.764 101.6C732.631 103.867 732.064 106.5 732.064 109.5C732.064 112.567 732.631 115.267 733.764 117.6C734.897 119.867 736.464 121.667 738.464 123C740.464 124.267 742.764 124.9 745.364 124.9Z" fill="#fff"/>
<path d="M804.705 137C799.372 137 794.572 135.833 790.305 133.5C786.105 131.1 782.772 127.833 780.305 123.7C777.905 119.567 776.705 114.867 776.705 109.6C776.705 104.2 777.905 99.4333 780.305 95.3C782.772 91.1667 786.105 87.9333 790.305 85.6C794.572 83.2 799.372 82 804.705 82C810.105 82 814.905 83.2 819.105 85.6C823.305 87.9333 826.605 91.1667 829.005 95.3C831.472 99.4333 832.705 104.2 832.705 109.6C832.705 114.867 831.472 119.567 829.005 123.7C826.605 127.833 823.305 131.1 819.105 133.5C814.905 135.833 810.105 137 804.705 137ZM804.705 124.7C807.372 124.7 809.705 124.033 811.705 122.7C813.772 121.367 815.372 119.567 816.505 117.3C817.705 115.033 818.272 112.467 818.205 109.6C818.272 106.6 817.705 103.967 816.505 101.7C815.372 99.3667 813.772 97.5667 811.705 96.3C809.705 94.9667 807.372 94.3 804.705 94.3C802.105 94.3 799.772 94.9667 797.705 96.3C795.639 97.6333 794.005 99.4333 792.805 101.7C791.605 103.967 791.039 106.6 791.105 109.6C791.039 112.467 791.605 115.033 792.805 117.3C794.005 119.567 795.639 121.367 797.705 122.7C799.772 124.033 802.105 124.7 804.705 124.7Z" fill="#fff"/>
<path d="M840.389 136V83.1H854.089L854.489 93.9L851.689 95.1C852.356 92.7 853.656 90.5333 855.589 88.6C857.522 86.6 859.822 85 862.489 83.8C865.156 82.6 867.922 82 870.789 82C874.789 82 878.122 82.8 880.789 84.4C883.522 86 885.556 88.4333 886.889 91.7C888.289 94.9 888.989 98.9 888.989 103.7V136H874.789V104.7C874.789 102.3 874.456 100.3 873.789 98.7C873.122 97.1 872.122 95.9333 870.789 95.2C869.456 94.4667 867.756 94.1333 865.689 94.2C864.089 94.2 862.622 94.4667 861.289 95C859.956 95.4667 858.756 96.1667 857.689 97.1C856.689 98.0333 855.922 99.1 855.389 100.3C854.856 101.5 854.589 102.833 854.589 104.3V136H847.489C846.022 136 844.689 136 843.489 136C842.289 136 841.256 136 840.389 136Z" fill="#fff"/>
<defs>
<linearGradient id="paint0_linear_1663_10357" x1="49.4759" y1="47.3407" x2="156.057" y2="136.077" gradientUnits="userSpaceOnUse">
<stop stop-color="#6AED9C"/>
<stop offset="0.5" stop-color="#67B1E4"/>
<stop offset="1" stop-color="#B543CE"/>
</linearGradient>
</defs>
</svg>
